<?xml version="1.0" encoding="UTF-8"?>
<svg version="1.1" xmlns="http://www.w3.org/2000/svg" width="1000" height="287">
<path d="M0 0 C1.02351563 0.42410156 2.04703125 0.84820313 3.1015625 1.28515625 C13.60646932 6.05890505 22.20603282 13.5890961 30 22 C30.845625 22.9075 31.69125 23.815 32.5625 24.75 C46.5395047 42.25562556 47.56193624 62.52999509 46 84 C45.43124941 89.00335665 44.03630535 93.39238146 42 98 C41.53279541 99.06057617 41.53279541 99.06057617 41.05615234 100.14257812 C38.51706522 105.83564117 35.79016915 111.42653686 33 117 C32.42499756 118.15242188 32.42499756 118.15242188 31.83837891 119.328125 C28.91176199 125.18893747 28.91176199 125.18893747 27.56347656 127.83740234 C26.23195373 130.46218585 25.00439432 132.98672393 24.078125 135.78515625 C22.17869165 139.68725303 18.78890526 140.33634879 14.89453125 141.80078125 C-10.76241049 150.09386642 -48.65222937 153.17505942 -73.75 141.625 C-77.45132019 139.5578706 -79.31604511 137.98831421 -81 134 C-81.72312203 132.55944982 -82.45324866 131.12240949 -83.1875 129.6875 C-83.61546875 128.81867188 -84.0434375 127.94984375 -84.484375 127.0546875 C-85.60316513 124.79980635 -86.73797716 122.5577377 -87.890625 120.3203125 C-99.94218449 96.81889946 -107.86922667 73.34346583 -100 47 C-98.46432665 42.60779141 -96.80261489 38.28922595 -95 34 C-94.34 34 -93.68 34 -93 34 C-92.75121094 33.11957031 -92.50242188 32.23914062 -92.24609375 31.33203125 C-90.940174 27.84002641 -89.4082273 25.56614859 -87.0625 22.6875 C-86.37285156 21.82511719 -85.68320313 20.96273438 -84.97265625 20.07421875 C-83 18 -83 18 -80 17 C-79.31513275 15.67592331 -78.65129797 14.34090759 -78 13 C-75.23076498 9.65781981 -73.32483175 8.48053686 -69 8 C-69 7.34 -69 6.68 -69 6 C-50.1415227 -6.62604605 -20.73379947 -9.11719127 0 0 Z M-58.0234375 25.53515625 C-65.36353704 34.68852148 -68.16044382 45.4100674 -67 57 C-64.39034798 68.01688325 -58.30515954 77.49820976 -49 84 C-38.90207318 89.47317615 -28.10447361 90.49001502 -16.85546875 88.421875 C-10.29504197 86.35707687 -5.87643352 82.69680141 -0.99609375 77.92578125 C1 76 1 76 3 75 C3 74.01 3 73.02 3 72 C3.66 72 4.32 72 5 72 C10.28801687 62.36825499 11.59925424 52.7912755 10 42 C8.73692149 37.74037662 7.1365318 33.89154006 5 30 C4.34 30 3.68 30 3 30 C2.93683594 29.4328125 2.87367188 28.865625 2.80859375 28.28125 C0.7653454 22.51672325 -6.55172827 18.26717862 -11.77734375 15.5625 C-28.55645639 8.69946445 -45.57864186 12.32080611 -58.0234375 25.53515625 Z " fill="#017EFE" transform="translate(248,4)"/>
<path d="M0 0 C3.96 0 7.92 0 12 0 C12 61.05 12 122.1 12 185 C8.04 185 4.08 185 0 185 C-0.33 178.4 -0.66 171.8 -1 165 C-3.289375 167.475 -3.289375 167.475 -5.625 170 C-16.87708752 181.5826262 -31.53227881 187.97563747 -47.6730957 188.24194336 C-66.92100577 188.3051895 -82.93421861 182.55308254 -97 169 C-108.69838197 156.63023263 -114.62012274 141.63977947 -114.4375 124.6875 C-114.42920166 123.68420654 -114.42090332 122.68091309 -114.41235352 121.6472168 C-114.01998282 104.31727852 -107.24322016 90.17968172 -95.08984375 77.83203125 C-80.67649087 64.081254 -64.0690942 60.48351903 -44.76953125 60.71875 C-37.93352274 60.93972975 -32.29627367 62.23799828 -26 65 C-25.13761719 65.350625 -24.27523437 65.70125 -23.38671875 66.0625 C-14.40090229 70.08725138 -7.10979104 76.3627612 -1 84 C-0.67 56.28 -0.34 28.56 0 0 Z M-89.96484375 90.3359375 C-100.05228263 103.44772956 -103.35059935 116.72288582 -102 133 C-99.45787494 146.58221103 -92.54403328 157.20317685 -82 166 C-69.3589581 174.45703508 -55.76772587 177.47230233 -40.75 175.4375 C-26.86543855 172.60952709 -14.9890698 164.29641015 -7.125 152.625 C-6.04961438 150.76913357 -5.00591162 148.89442241 -4 147 C-3.56558594 146.22914063 -3.13117188 145.45828125 -2.68359375 144.6640625 C2.35861311 133.80662752 1.83114183 117.49963944 -1.5625 106.1875 C-7.22779491 92.49140107 -17.72432771 82.27275516 -31 76 C-51.2463827 68.24255445 -75.84538386 73.54978041 -89.96484375 90.3359375 Z " fill="#3C3C3C" transform="translate(114,57)"/>
<path d="M0 0 C17.18885746 13.94159219 25.76921685 29.54261362 28.28125 51.453125 C29.02994126 67.79955091 22.56228555 83.47741503 12.09375 95.7578125 C1.51491256 107.08664215 -12.13762117 116.16861661 -28.07202148 117.12426758 C-48.4660635 117.80301828 -64.44155925 113.99450736 -80 100 C-81.65 98.35 -83.3 96.7 -85 95 C-85.33 115.13 -85.66 135.26 -86 156 C-89.96 156 -93.92 156 -98 156 C-98 104.52 -98 53.04 -98 0 C-94.04 0 -90.08 0 -86 0 C-85.67 3.96 -85.34 7.92 -85 12 C-84.44054687 11.3709375 -83.88109375 10.741875 -83.3046875 10.09375 C-62.06953439 -12.57528805 -26.17186834 -18.14782848 0 0 Z M-55 5 C-55.81597656 5.30550781 -56.63195312 5.61101562 -57.47265625 5.92578125 C-69.59319732 11.20810897 -78.52445831 21.14725557 -84 33 C-86.56184654 39.70453263 -86.4052873 46.02389008 -86.4375 53.125 C-86.47037109 54.38054687 -86.50324219 55.63609375 -86.53710938 56.9296875 C-86.6134475 70.30967813 -82.2533276 80.37329251 -73 90 C-61.64351438 100.73395401 -48.61717432 105.58406901 -33.0703125 105.24609375 C-20.75074186 104.25864725 -7.44680351 99.32543082 1 90 C12.72288297 75.51879163 16.53015902 62.45974446 15 44 C12.49700096 29.65646657 4.50525649 18.65546964 -7 10 C-21.51307425 1.0474906 -38.88520201 -1.15932216 -55 5 Z " fill="#363636" transform="translate(480,131)"/>
<path d="M0 0 C3.96385411 1.61490353 6.43524365 3.55782701 9 7 C9.6254272 11.11843621 9.47028696 15.15906174 9.3125 19.3125 C9.28994141 20.43462891 9.26738281 21.55675781 9.24414062 22.71289062 C9.18533776 25.47662536 9.10320401 28.23762554 9 31 C9.57540527 30.85127441 10.15081055 30.70254883 10.74365234 30.54931641 C17.84370061 28.90111601 24.37972772 28.9348255 31.625 29.375 C32.72457031 29.43171875 33.82414063 29.4884375 34.95703125 29.546875 C37.6388287 29.68679487 40.31945964 29.83802801 43 30 C42.85980308 27.18711295 42.71312045 24.37483115 42.5625 21.5625 C42.52318359 20.76005859 42.48386719 19.95761719 42.44335938 19.13085938 C42.5945704 15.24760439 42.5945704 15.24760439 41 12 C40.95907063 9.66702567 40.95758277 7.33294775 41 5 C43.83654255 5.31517139 45.27662994 6.19759282 47.625 7.875 C51.08145218 12.42296339 50.55452178 16.26833943 50.3125 21.8125 C50.28994141 22.79154297 50.26738281 23.77058594 50.24414062 24.77929688 C50.18539727 27.18777455 50.10332129 29.59309078 50 32 C51.98 32.495 51.98 32.495 54 33 C54.99 37.95 54.99 37.95 56 43 C58.00513672 42.94779297 58.00513672 42.94779297 60.05078125 42.89453125 C61.80467495 42.86639392 63.55858222 42.8390937 65.3125 42.8125 C66.19357422 42.78736328 67.07464844 42.76222656 67.98242188 42.73632812 C68.82998047 42.72666016 69.67753906 42.71699219 70.55078125 42.70703125 C71.33106689 42.6913208 72.11135254 42.67561035 72.9152832 42.65942383 C75.56947216 43.09303357 76.43009862 43.84169463 78 46 C78.2172101 48.64996326 78.28351554 51.05076558 78.1875 53.6875 C78.16719727 54.7403418 78.16719727 54.7403418 78.14648438 55.81445312 C78.11120182 57.54329829 78.05739583 59.27174765 78 61 C78.76957031 61.11988281 79.53914062 61.23976562 80.33203125 61.36328125 C84.09922911 62.26233433 85.56627468 64.0400638 88 67 C89.97183558 71.65515822 90.25060016 75.88963961 90.125 80.875 C90.11597656 81.56335938 90.10695313 82.25171875 90.09765625 82.9609375 C90.07432513 84.64077838 90.03846326 86.32043746 90 88 C88.35 88 86.7 88 85 88 C84.731875 88.61875 84.46375 89.2375 84.1875 89.875 C83 92 83 92 80 94 C77.9140625 94.37109375 77.9140625 94.37109375 75.625 94.4375 C74.87476563 94.47746094 74.12453125 94.51742187 73.3515625 94.55859375 C71 94 71 94 69.01171875 91.4921875 C64.22026572 87.52727566 59.19359459 88.46879067 53.1875 88.6875 C52.01767578 88.71005859 50.84785156 88.73261719 49.64257812 88.75585938 C46.76041231 88.81467909 43.88086319 88.89682859 41 89 C40.690625 89.8971875 40.690625 89.8971875 40.375 90.8125 C38.41337583 93.93326572 36.41635097 94.69303836 33 96 C20.93194813 97.2965748 8.38088324 95.34293638 -3.625 94.0625 C-5.42831397 93.87755721 -7.23169932 93.69330905 -9.03515625 93.50976562 C-10.76568918 93.33135058 -12.49616048 93.15233647 -14.2265625 92.97265625 C-15.41724838 92.8491555 -15.41724838 92.8491555 -16.63198853 92.72315979 C-20.78373022 92.27951698 -24.88738538 91.73676496 -29 91 C-30.08749814 87.45910606 -30.16650005 84.1292914 -30.1875 80.4375 C-30.20167969 79.30183594 -30.21585938 78.16617188 -30.23046875 76.99609375 C-30 74 -30 74 -28 71 C-25.65234375 70.3046875 -25.65234375 70.3046875 -22.9375 69.875 C-19.66815385 69.56845653 -19.66815385 69.56845653 -17 68 C-14.32941149 67.85884839 -11.67567762 67.95752893 -9 68 C-8.9906543 67.1121582 -8.98130859 66.22431641 -8.97167969 65.30957031 C-8.92759319 62.00654081 -8.86595254 58.70479993 -8.79248047 55.40234375 C-8.76430389 53.97473063 -8.74307273 52.54696247 -8.72900391 51.11914062 C-8.70752608 49.06299668 -8.66086026 47.00870998 -8.609375 44.953125 C-8.58842773 43.71723633 -8.56748047 42.48134766 -8.54589844 41.20800781 C-7.89704356 37.39496973 -7.07236961 36.28350012 -4 34 C-1.25 32.75 -1.25 32.75 1 32 C1.0289337 28.20834926 1.04677601 24.41672673 1.0625 20.625 C1.07087891 19.54476562 1.07925781 18.46453125 1.08789062 17.3515625 C1.09111328 16.3203125 1.09433594 15.2890625 1.09765625 14.2265625 C1.10289307 13.27346191 1.10812988 12.32036133 1.11352539 11.33837891 C1.15642599 8.97675594 1.15642599 8.97675594 0 7 C-0.04022391 4.6670134 -0.04320247 2.33293334 0 0 Z M40 42 C41 44 41 44 41 44 Z M27 44 C27.66 44.66 28.32 45.32 29 46 C29 45.34 29 44.68 29 44 C28.34 44 27.68 44 27 44 Z M48 45 C47.67 45.66 47.34 46.32 47 47 C47.66 47 48.32 47 49 47 C49 55.25 49 63.5 49 72 C49.33 72 49.66 72 50 72 C50.33 64.08 50.66 56.16 51 48 C58.92 48 66.84 48 75 48 C75.33 48.66 75.66 49.32 76 50 C75.67 48.68 75.34 47.36 75 46 C68.95180188 45.11097088 63.10776514 44.87651617 57 44.9375 C56.12988281 44.94201172 55.25976562 44.94652344 54.36328125 44.95117188 C52.24215707 44.9628264 50.1210689 44.98075643 48 45 Z M44 45 C41.18542106 45.44770609 38.37380871 45.90757217 35.5625 46.375 C34.76005859 46.50132812 33.95761719 46.62765625 33.13085938 46.7578125 C31.07479277 47.10482796 29.03509869 47.54590428 27 48 C26.67 48.66 26.34 49.32 26 50 C32.36559573 49.50873071 38.69264693 49.00344253 45 48 C44.67 47.01 44.34 46.02 44 45 Z M18 47 C18 48.32 18 49.64 18 51 C17.34 51 16.68 51 16 51 C15.67 50.01 15.34 49.02 15 48 C15 51.3 15 54.6 15 58 C17.31 58.33 19.62 58.66 22 59 C22.33 57.02 22.66 55.04 23 53 C22.01 53 21.02 53 20 53 C20 52.34 20 51.68 20 51 C20.99 50.67 21.98 50.34 23 50 C23 49.34 23 48.68 23 48 C21.35 47.67 19.7 47.34 18 47 Z M15 60 C16 64 16 64 16 64 Z M18 60 C18.33 61.32 18.66 62.64 19 64 C19.99 63.67 20.98 63.34 22 63 C22 62.34 22 61.68 22 61 C20.68 60.67 19.36 60.34 18 60 Z M26 62 C26.78375 62.78375 27.5675 63.5675 28.375 64.375 C29.91666667 65.91666667 31.45833333 67.45833333 33 69 C35.68793893 68.7993036 35.68793893 68.7993036 38.625 68.125 C39.62789062 67.92132813 40.63078125 67.71765625 41.6640625 67.5078125 C42.43492187 67.34023437 43.20578125 67.17265625 44 67 C42.48287375 64.37130513 42.48287375 64.37130513 40 62 C36.50024865 61.39614308 36.50024865 61.39614308 32.75 61.6875 C31.48671875 61.73261719 30.2234375 61.77773437 28.921875 61.82421875 C27.95765625 61.88222656 26.9934375 61.94023437 26 62 Z M78 66 C78 66.99 78 67.98 78 69 C80.64 69 83.28 69 86 69 C85.34 68.01 84.68 67.02 84 66 C80.91634129 65.7497843 80.91634129 65.7497843 78 66 Z M-5.3125 73.5625 C-7.38941336 76.02199927 -7.38941336 76.02199927 -6.75 79.75 C-6.5025 80.8225 -6.255 81.895 -6 83 C-4.02 83 -2.04 83 0 83 C-0.020625 81.9275 -0.04125 80.855 -0.0625 79.75 C-0.0142016 76.85209576 0.13155885 74.71387859 1 72 C-2.91275555 71.62676173 -2.91275555 71.62676173 -5.3125 73.5625 Z M35 74 C35 77.96 35 81.92 35 86 C52.49 85.67 69.98 85.34 88 85 C88 81.7 88 78.4 88 75 C70.32101552 74.22533401 52.69564269 73.86870504 35 74 Z M-21 75 C-21.20625 76.258125 -21.4125 77.51625 -21.625 78.8125 C-21.74101563 79.52019531 -21.85703125 80.22789062 -21.9765625 80.95703125 C-22.19577848 83.31755824 -22.19577848 83.31755824 -20 86 C-18.98312954 81.22237362 -18.98312954 81.22237362 -19.9375 76.5625 C-20.288125 76.046875 -20.63875 75.53125 -21 75 Z M25 75 C23.98459888 79.10223585 23.98459888 79.10223585 25 83 C25.99 83 26.98 83 28 83 C29.01540112 78.89776415 29.01540112 78.89776415 28 75 C27.01 75 26.02 75 25 75 Z M-27 76 C-28.39287806 77.17036305 -28.39287806 77.17036305 -28.1875 80.4375 C-28.39564928 84.05032721 -28.39564928 84.05032721 -26 86 C-26 82.7 -26 79.4 -26 76 C-26.33 76 -26.66 76 -27 76 Z M-8 87 C-4 88 -4 88 -4 88 Z " fill="#1286FF" transform="translate(910,154)"/>
<path d="M0 0 C10.03693108 8.07386216 10.03693108 8.07386216 12 12 C12.495 5.565 12.495 5.565 13 -1 C16.96 -1 20.92 -1 25 -1 C25 36.62 25 74.24 25 113 C21.04 113 17.08 113 13 113 C12.67 106.4 12.34 99.8 12 93 C10.47375 94.65 8.9475 96.3 7.375 98 C-3.87708752 109.5826262 -18.53227881 115.97563747 -34.6730957 116.24194336 C-52.37031763 116.30009414 -67.8192692 111.92201191 -80.765625 99.29296875 C-81.50296875 98.53628906 -82.2403125 97.77960938 -83 97 C-84.04414062 96.00419922 -84.04414062 96.00419922 -85.109375 94.98828125 C-89.53909085 90.48130291 -92.52987531 85.58970349 -95.375 80 C-95.87604248 79.02148071 -95.87604248 79.02148071 -96.38720703 78.02319336 C-100.37198033 69.78806357 -101.37074166 61.76571079 -101.3125 52.6875 C-101.30686035 51.76396729 -101.3012207 50.84043457 -101.29541016 49.88891602 C-100.98495258 32.39109672 -94.03682758 18.33699439 -81.91015625 5.84765625 C-59.67275641 -15.10295011 -24.97609838 -17.82568311 0 0 Z M-78.75878906 20.39355469 C-87.89174357 32.21394034 -89.93395661 45.44835352 -89 60 C-87.21537774 73.33599546 -80.30867994 84.48560589 -70 93 C-61.8042678 98.93758881 -52.16780321 103.24682939 -42 104 C-41.04287109 104.07734375 -41.04287109 104.07734375 -40.06640625 104.15625 C-25.49924331 104.79773974 -13.07193157 99.59418182 -2.1875 90.25 C6.68127572 81.79813254 12.86671574 70.5366044 13.56640625 58.1328125 C13.59385462 56.13039603 13.5919919 54.12738742 13.5625 52.125 C13.55226807 51.0743335 13.54203613 50.02366699 13.53149414 48.94116211 C13.1901653 36.44156469 9.4732778 27.31511534 1 18 C0.18208984 17.06220703 0.18208984 17.06220703 -0.65234375 16.10546875 C-9.23048408 6.84107719 -20.99990755 1.60730712 -33.53125 0.76171875 C-51.83457435 0.41943217 -66.60603234 6.27105747 -78.75878906 20.39355469 Z " fill="#373737" transform="translate(625,132)"/>
<path d="M0 0 C3.54112885 2.80848151 6.79713099 5.8144438 10 9 C10.64324219 9.6290625 11.28648437 10.258125 11.94921875 10.90625 C13.31459292 12.25571072 14.66030131 13.62504608 16 15 C15 18 15 18 13.29296875 18.94921875 C12.59816406 19.19285156 11.90335938 19.43648437 11.1875 19.6875 C10.50042969 19.93886719 9.81335938 20.19023437 9.10546875 20.44921875 C7 21 7 21 3 21 C1.61752309 19.3477715 0.23974015 17.69129897 -1.109375 16.01171875 C-8.89569061 7.72669284 -20.34323195 3.52185793 -31.49609375 2.76171875 C-46.79504722 2.47363142 -59.88793461 5.68091499 -71.46875 16.25390625 C-81.549323 26.72090122 -86.41408588 38.96721999 -86.3125 53.375 C-86.30404053 54.63280273 -86.30404053 54.63280273 -86.29541016 55.91601562 C-86.17513157 62.04665078 -85.57114812 67.36889233 -83 73 C-82.41412109 74.3303125 -82.41412109 74.3303125 -81.81640625 75.6875 C-76.39676948 86.74171664 -66.99311736 96.56105149 -55.16113281 100.6328125 C-40.28382765 105.23059092 -26.04664191 105.3407877 -11.80859375 98.45703125 C-5.73913582 94.76808394 -0.7589232 90.24981499 4 85 C8 86.33333333 12 87.66666667 16 89 C12.30189849 99.79241869 0.76015906 106.92396568 -9 112 C-12.93808696 113.64691886 -16.86082049 114.96366295 -21 116 C-21.73992187 116.19078125 -22.47984375 116.3815625 -23.2421875 116.578125 C-40.87728502 119.2758453 -57.84778403 116.29776862 -72.66015625 106.18359375 C-86.94545408 95.25434734 -96.48937411 81.20784195 -99.6015625 63.36328125 C-101.67798065 45.83586918 -98.05555729 28.81344691 -87.25 14.73046875 C-65.61739482 -11.52159899 -29.26009027 -19.05393582 0 0 Z " fill="#353535" transform="translate(831,131)"/>
<path d="M0 0 C3.96 0 7.92 0 12 0 C12.33 24.42 12.66 48.84 13 74 C16.63 71.69 20.26 69.38 24 67 C37.12723599 62.09705644 51.129848 62.4148397 64 68 C75.95207721 74.25356362 83.38982804 83.6728254 87.8125 96.32421875 C89.96911481 104.9057485 89.16223762 114.22114213 89 123 C85.04 123 81.08 123 77 123 C76.94392578 121.22496094 76.94392578 121.22496094 76.88671875 119.4140625 C76.39280695 106.62377674 75.53799807 96.44605335 66.75 86.4375 C58.47762582 79.10516834 50.65847366 76.47823502 39.59765625 76.69921875 C29.14794589 77.57286446 21.95042279 82.27428543 15 90 C12.29131668 93.8937463 12.69291545 98.2523332 12.68115234 102.80761719 C12.67110672 103.69577621 12.6610611 104.58393524 12.65071106 105.49900818 C12.61984608 108.43162393 12.60283465 111.36414825 12.5859375 114.296875 C12.56722853 116.33140857 12.54765532 118.36593437 12.5272522 120.40045166 C12.47589645 125.75318823 12.43628908 131.10594997 12.39910889 136.45880127 C12.35909088 141.92181644 12.30798847 147.38472661 12.2578125 152.84765625 C12.16101241 163.56503044 12.07662062 174.28246388 12 185 C8.04 185 4.08 185 0 185 C0 123.95 0 62.9 0 0 Z " fill="#4B4B4B" transform="translate(857,60)"/>
<path d="M0 0 C6.08434531 6.31942228 8.88744352 10.84439951 8.71875 19.78515625 C7.42961513 20.45670558 6.13734796 21.12224484 4.84375 21.78515625 C4.12445313 22.15640625 3.40515625 22.52765625 2.6640625 22.91015625 C0.71875 23.78515625 0.71875 23.78515625 -1.28125 23.78515625 C-1.52359375 23.0375 -1.7659375 22.28984375 -2.015625 21.51953125 C-2.35078125 20.5346875 -2.6859375 19.54984375 -3.03125 18.53515625 C-3.35609375 17.560625 -3.6809375 16.58609375 -4.015625 15.58203125 C-5.73205501 11.78893284 -7.92258161 9.60035728 -11.46875 7.47265625 C-16.96381248 6.12941875 -21.67045914 6.94993136 -26.65625 9.53515625 C-30.09578875 12.48333232 -31.96530385 14.49162122 -32.59765625 19.08203125 C-32.8716587 24.91563177 -31.92467821 29.07093646 -28.28125 33.78515625 C-26.14889217 35.69292826 -23.84349138 37.17057443 -21.40625 38.66015625 C-20.75003662 39.08087402 -20.09382324 39.5015918 -19.41772461 39.93505859 C-16.74293124 41.64479958 -14.0439389 43.31397631 -11.34326172 44.98242188 C-0.25222992 51.84404279 10.23428702 58.39325704 13.71875 71.78515625 C15.13513998 82.39378727 14.38269595 92.37738981 7.953125 101.2109375 C2.20296948 108.126971 -4.28690747 113.16322563 -13.28125 114.78515625 C-23.20973949 115.64219718 -31.79969885 114.77672926 -40.01171875 108.796875 C-47.27106706 102.58836293 -52.31237394 96.27155909 -54.28125 86.78515625 C-54.40625 83.84765625 -54.40625 83.84765625 -54.28125 81.78515625 C-52.425 81.29015625 -52.425 81.29015625 -50.53125 80.78515625 C-49.83515625 80.59953125 -49.1390625 80.41390625 -48.421875 80.22265625 C-46.28125 79.78515625 -46.28125 79.78515625 -42.28125 79.78515625 C-42.075 81.08453125 -41.86875 82.38390625 -41.65625 83.72265625 C-40.25023167 89.91304251 -37.46529384 95.1412627 -32.53125 99.23828125 C-26.8739414 102.58552217 -20.6661063 102.61983423 -14.28125 101.78515625 C-8.03411913 100.01966274 -3.83639626 96.11787564 -0.28125 90.78515625 C2.41929044 85.13857169 2.68173921 79.33688704 1.0546875 73.3359375 C-3.55826593 62.1204744 -15.10494937 56.30571885 -25.23754883 50.75341797 C-34.49026202 45.56919059 -41.79963617 39.23284169 -44.8515625 28.84375 C-46.66832363 20.13981259 -44.7951054 12.49986058 -40.18359375 5 C-35.72374928 -0.91118369 -29.07587134 -4.76452628 -21.8359375 -6.0546875 C-13.78672541 -6.55930171 -6.20774638 -5.35286606 0 0 Z " fill="#353535" transform="translate(347.28125,130.21484375)"/>
<path d="M0 0 C3.96 0 7.92 0 12 0 C12 15.84 12 31.68 12 48 C19.59 48 27.18 48 35 48 C35 51.63 35 55.26 35 59 C34.67 59.33 34.34 59.66 34 60 C27.07 60 20.14 60 13 60 C12.67 93.66 12.34 127.32 12 162 C8.04 162 4.08 162 0 162 C-0.33 128.34 -0.66 94.68 -1 60 C-8.26 60 -15.52 60 -23 60 C-23 56.04 -23 52.08 -23 48 C-15.41 48 -7.82 48 0 48 C0 32.16 0 16.32 0 0 Z " fill="#353535" transform="translate(687,83)"/>
<path d="M0 0 C-0.49304041 6.08083167 -2.20742293 12.17800916 -6 17 C-10.24398195 18.91034883 -14.39962813 19.49599655 -19 20 C-20.0420459 20.16910889 -21.0840918 20.33821777 -22.15771484 20.51245117 C-26.4145754 21.05260561 -30.54356968 21.16187506 -34.828125 21.16796875 C-35.65777771 21.17129715 -36.48743042 21.17462555 -37.34222412 21.17805481 C-39.09028575 21.18309355 -40.8383569 21.18546408 -42.58642578 21.18530273 C-45.22835578 21.18748215 -47.8698628 21.20565104 -50.51171875 21.22460938 C-73.40460773 21.30512301 -73.40460773 21.30512301 -77.71142578 17.47998047 C-80.85268972 13.56738684 -82.55078835 8.75019373 -84 4 C-83.67 3.34 -83.34 2.68 -83 2 C-81.73929688 2.14308594 -80.47859375 2.28617188 -79.1796875 2.43359375 C-73.83259975 3.02643668 -68.48111281 3.55826344 -63.125 4.0625 C-61.75021484 4.19881836 -61.75021484 4.19881836 -60.34765625 4.33789062 C-53.87823932 4.94297674 -47.49532172 5.11919739 -41 5 C-40.30583984 4.98912354 -39.61167969 4.97824707 -38.89648438 4.96704102 C-27.01918151 4.68705872 -15.60297343 2.68541686 -3.97680664 0.35131836 C-2 0 -2 0 0 0 Z " fill="#057FFF" transform="translate(262,156)"/>
<path d="M0 0 C4.43737712 -0.08690253 8.87453634 -0.14035926 13.3125 -0.1875 C14.57513672 -0.21263672 15.83777344 -0.23777344 17.13867188 -0.26367188 C18.34716797 -0.27333984 19.55566406 -0.28300781 20.80078125 -0.29296875 C21.91622314 -0.3086792 23.03166504 -0.32438965 24.1809082 -0.34057617 C27 0 27 0 28.86914062 1.29492188 C30.77142832 4.16313803 30.30819509 7.37302706 30.1875 10.6875 C30.16719727 11.7403418 30.16719727 11.7403418 30.14648438 12.81445312 C30.11120182 14.54329829 30.05739583 16.27174765 30 18 C30.76957031 18.11988281 31.53914062 18.23976562 32.33203125 18.36328125 C36.09922911 19.26233433 37.56627468 21.0400638 40 24 C41.91627411 28.57666841 42.21813072 32.43907193 42.125 37.375 C42.10695313 38.62023437 42.08890625 39.86546875 42.0703125 41.1484375 C42.04710937 42.08945313 42.02390625 43.03046875 42 44 C40.35 44 38.7 44 37 44 C37.99 43.67 38.98 43.34 40 43 C40 39.37 40 35.74 40 32 C38.19015625 32.01160156 36.3803125 32.02320313 34.515625 32.03515625 C32.09375104 32.04454336 29.67187595 32.05364256 27.25 32.0625 C25.46916016 32.07506836 25.46916016 32.07506836 23.65234375 32.08789062 C16.04697478 32.10867032 8.56658475 31.77144376 1 31 C1.66 30.67 2.32 30.34 3 30 C3 21.42 3 12.84 3 4 C9.93 4 16.86 4 24 4 C20.711522 3.3423044 17.66139815 2.80218348 14.35546875 2.46484375 C13.51435547 2.37783203 12.67324219 2.29082031 11.80664062 2.20117188 C10.94232422 2.11416016 10.07800781 2.02714844 9.1875 1.9375 C7.86202148 1.80118164 7.86202148 1.80118164 6.50976562 1.66210938 C4.34005254 1.43927398 2.17013949 1.21863702 0 1 C0 0.67 0 0.34 0 0 Z M30 23 C30 23.99 30 24.98 30 26 C32.64 26 35.28 26 38 26 C37.34 25.01 36.68 24.02 36 23 C32.91634129 22.7497843 32.91634129 22.7497843 30 23 Z " fill="#007DFF" transform="translate(958,197)"/>
<path d="M0 0 C-0.49257218 4.06372045 -1.94373751 6.84854743 -4.01171875 10.28515625 C-5.25286888 12.43877249 -6.15166909 14.66708999 -7 17 C-15.22892074 18.00312909 -23.40936908 18.25066802 -31.6887207 18.29516602 C-33.20053364 18.30681933 -34.7123014 18.32747481 -36.22387695 18.35668945 C-38.42947773 18.3991459 -40.63388661 18.41548549 -42.83984375 18.42578125 C-44.14300537 18.44036377 -45.44616699 18.45494629 -46.78881836 18.4699707 C-50 18 -50 18 -51.85864258 16.12792969 C-52.23529053 15.42571289 -52.61193848 14.72349609 -53 14 C-53.46921875 13.18402344 -53.9384375 12.36804688 -54.421875 11.52734375 C-54.86015625 10.67269531 -55.2984375 9.81804687 -55.75 8.9375 C-56.19859375 8.08027344 -56.6471875 7.22304687 -57.109375 6.33984375 C-58 4 -58 4 -57 1 C-55.73929688 1.00523682 -54.47859375 1.01047363 -53.1796875 1.01586914 C-48.475756 1.03405064 -43.77182757 1.04547987 -39.06787109 1.05493164 C-37.03694129 1.05994189 -35.00601506 1.06675191 -32.97509766 1.07543945 C-30.04588943 1.08765047 -27.11672915 1.09326153 -24.1875 1.09765625 C-23.28821777 1.10281754 -22.38893555 1.10797882 -21.46240234 1.11329651 C-14.25513918 1.11392929 -7.18448724 -0.17961218 0 0 Z " fill="#0881FF" transform="translate(249,185)"/>
<path d="M0 0 C-0.62397018 4.01084361 -1.90448401 7.2135781 -3.6875 10.8515625 C-4.22117188 11.94984375 -4.75484375 13.048125 -5.3046875 14.1796875 C-5.86414063 15.31664062 -6.42359375 16.45359375 -7 17.625 C-8.1056677 19.88728784 -9.20990303 22.15027646 -10.3125 24.4140625 C-10.80363281 25.4138916 -11.29476562 26.4137207 -11.80078125 27.44384766 C-13.07504227 30.03071398 -13.07504227 30.03071398 -14 33 C-15.32 33 -16.64 33 -18 33 C-19.8612339 29.09019032 -21.71231301 25.17578377 -23.55419922 21.25683594 C-24.18197272 19.92480234 -24.81248495 18.59405587 -25.44580078 17.26464844 C-26.35655172 15.35164255 -27.25729738 13.43419797 -28.15625 11.515625 C-28.70087891 10.36352539 -29.24550781 9.21142578 -29.80664062 8.02441406 C-31 5 -31 5 -31 1 C-26.77089482 0.83174865 -22.54170681 0.66567565 -18.3125 0.5 C-17.11431641 0.45230469 -15.91613281 0.40460938 -14.68164062 0.35546875 C-13.52470703 0.31035156 -12.36777344 0.26523438 -11.17578125 0.21875 C-9.58117065 0.1559082 -9.58117065 0.1559082 -7.9543457 0.09179688 C-5.30023521 0.00932885 -2.65511397 -0.01717131 0 0 Z " fill="#047FFF" transform="translate(236,212)"/>
<path d="M0 0 C36.3 0 72.6 0 110 0 C110 0.99 110 1.98 110 3 C73.7 3 37.4 3 0 3 C0 2.01 0 1.02 0 0 Z " fill="#77B6FF" transform="translate(506,272)"/>
<path d="M0 0 C27.39 0 54.78 0 83 0 C83 0.99 83 1.98 83 3 C55.61 3 28.22 3 0 3 C0 2.01 0 1.02 0 0 Z " fill="#A4A4A4" transform="translate(533,279)"/>
<path d="M0 0 C1.16107773 -0.01441132 1.16107773 -0.01441132 2.34561157 -0.02911377 C3.17176971 -0.03336365 3.99792786 -0.03761353 4.84912109 -0.04199219 C5.70436371 -0.04769226 6.55960632 -0.05339233 7.44076538 -0.05926514 C9.24451466 -0.06869344 11.04828099 -0.07524048 12.85205078 -0.07910156 C15.61960344 -0.08885677 18.38642854 -0.11991969 21.15380859 -0.15136719 C22.90640835 -0.15789277 24.65901341 -0.16314498 26.41162109 -0.16699219 C27.2418277 -0.17933899 28.0720343 -0.19168579 28.92739868 -0.20440674 C31.25390625 -0.1953125 31.25390625 -0.1953125 34.99755859 0.16113281 C35.65755859 1.15113281 36.31755859 2.14113281 36.99755859 3.16113281 C35.34755859 3.16113281 33.69755859 3.16113281 31.99755859 3.16113281 C31.72943359 3.77988281 31.46130859 4.39863281 31.18505859 5.03613281 C29.99755859 7.16113281 29.99755859 7.16113281 26.99755859 9.16113281 C24.91162109 9.53222656 24.91162109 9.53222656 22.62255859 9.59863281 C21.87232422 9.63859375 21.12208984 9.67855469 20.34912109 9.71972656 C17.99755859 9.16113281 17.99755859 9.16113281 15.88427734 6.68457031 C11.61865524 2.95575857 7.67732999 3.38182989 2.18505859 3.34863281 C1.20601562 3.32349609 0.22697266 3.29835937 -0.78173828 3.27246094 C-3.18904338 3.21374618 -5.59453702 3.17735301 -8.00244141 3.16113281 C-8.00244141 2.50113281 -8.00244141 1.84113281 -8.00244141 1.16113281 C-5.27532519 0.39758403 -2.82913204 0.02849516 0 0 Z " fill="#2D93FF" transform="translate(963.00244140625,238.8388671875)"/>
<path d="M0 0 C27.39 0 54.78 0 83 0 C83 0.66 83 1.32 83 2 C55.61 2 28.22 2 0 2 C0 1.34 0 0.68 0 0 Z " fill="#3C3C3C" transform="translate(533,267)"/>
<path d="M0 0 C0.1080023 2.10304477 0.18558987 4.20766909 0.25 6.3125 C0.29640625 7.48425781 0.3428125 8.65601563 0.390625 9.86328125 C0 13 0 13 -1.85546875 14.890625 C-4.52572742 16.271961 -6.03628306 16.53194919 -9 16 C-10.97610386 13.95575462 -12 12.8823175 -12 10 C-12.226875 9.05125 -12.45375 8.1025 -12.6875 7.125 C-13 4 -13 4 -11.75 1.6875 C-8.06465371 -1.86622678 -4.69090324 -0.79656847 0 0 Z M-8 2 C-8.66 2.66 -9.32 3.32 -10 4 C-9.67958603 6.60280568 -9.67958603 6.60280568 -9 9 C-6.60280568 9.67958603 -6.60280568 9.67958603 -4 10 C-3.34 9.34 -2.68 8.68 -2 8 C-2.32041397 5.39719432 -2.32041397 5.39719432 -3 3 C-5.39719432 2.32041397 -5.39719432 2.32041397 -8 2 Z " fill="#272727" transform="translate(806,269)"/>
<path d="M0 0 C2 2 2 2 2.375 4.875 C2 8 2 8 0.375 10.4375 C-2 12 -2 12 -5.25 11.75 C-6.1575 11.5025 -7.065 11.255 -8 11 C-8 12.32 -8 13.64 -8 15 C-8.99 15 -9.98 15 -11 15 C-11 9.72 -11 4.44 -11 -1 C-4.08 -2.15333333 -4.08 -2.15333333 0 0 Z M-6 1 C-6.66 1.66 -7.32 2.32 -8 3 C-7.67958603 5.60280568 -7.67958603 5.60280568 -7 8 C-5.35 8.33 -3.7 8.66 -2 9 C-1.34 7.35 -0.68 5.7 0 4 C-1.31201173 2.43750191 -1.31201173 2.43750191 -3 1 C-3.99 1 -4.98 1 -6 1 Z " fill="#747474" transform="translate(694,270)"/>
<path d="M0 0 C2.51739388 0.99370811 3.7826636 1.75851335 5.375 3.9375 C5.375 4.9275 5.375 5.9175 5.375 6.9375 C2.075 6.9375 -1.225 6.9375 -4.625 6.9375 C-4.625 7.9275 -4.625 8.9175 -4.625 9.9375 C-1.42597361 10.02636184 1.30177456 9.84808531 4.375 8.9375 C4.375 9.9275 4.375 10.9175 4.375 11.9375 C1.12673326 14.10301116 0.14405843 14.48906953 -3.625 13.9375 C-6.65747414 11.80657223 -7.50137987 10.59680734 -8.1875 6.9375 C-7.625 3.9375 -7.625 3.9375 -5.4375 1.5 C-2.625 -0.0625 -2.625 -0.0625 0 0 Z M-2.625 2.9375 C-2.955 3.5975 -3.285 4.2575 -3.625 4.9375 C-1.975 4.9375 -0.325 4.9375 1.375 4.9375 C1.045 4.2775 0.715 3.6175 0.375 2.9375 C-0.615 2.9375 -1.605 2.9375 -2.625 2.9375 Z " fill="#2D2D2D" transform="translate(745.625,268.0625)"/>
<path d="M0 0 C1.375 2.625 1.375 2.625 2 5 C-1.3 5.33 -4.6 5.66 -8 6 C-7.67 6.66 -7.34 7.32 -7 8 C-4.36 7.67 -1.72 7.34 1 7 C0.375 8.9375 0.375 8.9375 -1 11 C-3.875 11.9375 -3.875 11.9375 -7 12 C-9.56027866 10.68526231 -10.65962839 9.72936774 -11.875 7.125 C-12.0456037 4.22473714 -11.40057736 2.53437808 -10 0 C-6.50685249 -2.86937117 -3.84976097 -1.92488048 0 0 Z M-6 1 C-6.66 1.66 -7.32 2.32 -8 3 C-6.02 3 -4.04 3 -2 3 C-2.33 2.34 -2.66 1.68 -3 1 C-3.99 1 -4.98 1 -6 1 Z " fill="#6D6D6D" transform="translate(721,270)"/>
<path d="M0 0 C8.3984375 -0.29296875 8.3984375 -0.29296875 11 0 C13.13586678 3.20380017 13.23132175 4.01939967 13.125 7.6875 C13.10695313 8.49574219 13.08890625 9.30398438 13.0703125 10.13671875 C13.03550781 11.05904297 13.03550781 11.05904297 13 12 C12.01 12 11.02 12 10 12 C9.67 9.03 9.34 6.06 9 3 C7.58422523 4.18424326 7.58422523 4.18424326 7.9375 7.5625 C7.958125 8.696875 7.97875 9.83125 8 11 C7.01 11.33 6.02 11.66 5 12 C4.67 9.03 4.34 6.06 4 3 C3.67 3 3.34 3 3 3 C2.67 5.97 2.34 8.94 2 12 C1.34 12 0.68 12 0 12 C0 8.04 0 4.08 0 0 Z " fill="#676767" transform="translate(665,269)"/>
<path d="M0 0 C2.60964149 1.03012164 3.83498357 1.58694861 5.375 3.9375 C5.92124158 7.60512206 5.85398298 9.2633758 3.6875 12.3125 C1.375 13.9375 1.375 13.9375 -1.125 14.4375 C-4.49513879 13.76347224 -5.64177007 12.7287125 -7.625 9.9375 C-8.1875 6.9375 -8.1875 6.9375 -7.625 3.9375 C-5.12171555 1.14812589 -3.80877374 -0.09068509 0 0 Z M-2.625 2.9375 C-4.91228734 4.77633881 -4.91228734 4.77633881 -4.75 7.5625 C-4.70875 8.34625 -4.6675 9.13 -4.625 9.9375 C-2.6335944 10.31883299 -0.63220923 10.65075582 1.375 10.9375 C2.64503323 9.88439723 2.64503323 9.88439723 2.5625 7.5 C2.64339983 4.77015325 2.64339983 4.77015325 0.375 2.9375 C-0.615 2.9375 -1.605 2.9375 -2.625 2.9375 Z " fill="#232323" transform="translate(975.625,268.0625)"/>
<path d="M0 0 C2.8125 1.5625 2.8125 1.5625 4.375 4.375 C4.8125 7.5625 4.8125 7.5625 3.8125 10.375 C1.8125 12.5625 1.8125 12.5625 -1.0625 13.6875 C-4.1875 13.5625 -4.1875 13.5625 -7.125 11.5 C-9.1875 8.5625 -9.1875 8.5625 -9.3125 5.4375 C-8.1875 2.5625 -8.1875 2.5625 -6 0.5625 C-3.1875 -0.4375 -3.1875 -0.4375 0 0 Z M-4.1875 2.5625 C-4.8475 3.2225 -5.5075 3.8825 -6.1875 4.5625 C-5.86708603 7.16530568 -5.86708603 7.16530568 -5.1875 9.5625 C-3.5375 9.8925 -1.8875 10.2225 -0.1875 10.5625 C0.4725 8.9125 1.1325 7.2625 1.8125 5.5625 C0.50048827 4.00000191 0.50048827 4.00000191 -1.1875 2.5625 C-2.1775 2.5625 -3.1675 2.5625 -4.1875 2.5625 Z " fill="#262626" transform="translate(784.1875,268.4375)"/>
<path d="M0 0 C2.60964149 1.03012164 3.83498357 1.58694861 5.375 3.9375 C5.92124158 7.60512206 5.85398298 9.2633758 3.6875 12.3125 C1.375 13.9375 1.375 13.9375 -1.125 14.4375 C-4.49513879 13.76347224 -5.64177007 12.7287125 -7.625 9.9375 C-8.1875 6.9375 -8.1875 6.9375 -7.625 3.9375 C-5.12171555 1.14812589 -3.80877374 -0.09068509 0 0 Z M-2.625 2.9375 C-4.91228734 4.77633881 -4.91228734 4.77633881 -4.75 7.5625 C-4.70875 8.34625 -4.6675 9.13 -4.625 9.9375 C-1.04172247 10.93967064 -1.04172247 10.93967064 2.375 9.9375 C2.54187448 7.52104218 2.54187448 7.52104218 2.375 4.9375 C1.715 4.2775 1.055 3.6175 0.375 2.9375 C-0.615 2.9375 -1.605 2.9375 -2.625 2.9375 Z " fill="#7E7E7E" transform="translate(913.625,268.0625)"/>
<path d="M0 0 C1.8125 1.1875 1.8125 1.1875 3 3 C3.54624158 6.66762206 3.47898298 8.3258758 1.3125 11.375 C-1 13 -1 13 -3.5 13.5 C-6 13 -6 13 -8.375 11.4375 C-10 9 -10 9 -10 5.4375 C-9 2 -9 2 -7.25 0 C-4.33305134 -1.29642163 -2.98207327 -1.07048784 0 0 Z M-5 2 C-5.66 2.66 -6.32 3.32 -7 4 C-6.67958603 6.60280568 -6.67958603 6.60280568 -6 9 C-4.34385343 9.38218767 -2.67542976 9.71395102 -1 10 C0.35618499 8.87465895 0.35618499 8.87465895 0.0625 5.9375 C0.041875 4.968125 0.02125 3.99875 0 3 C-2.39719432 2.32041397 -2.39719432 2.32041397 -5 2 Z " fill="#767676" transform="translate(656,269)"/>
<path d="M0 0 C2.375 0.9375 2.375 0.9375 3.6875 3 C4.0278125 3.9590625 4.0278125 3.9590625 4.375 4.9375 C2.065 4.6075 -0.245 4.2775 -2.625 3.9375 C-2.955 5.5875 -3.285 7.2375 -3.625 8.9375 C-1.15 9.9275 -1.15 9.9275 1.375 10.9375 C1.375 10.2775 1.375 9.6175 1.375 8.9375 C2.365 8.9375 3.355 8.9375 4.375 8.9375 C4.045 10.2575 3.715 11.5775 3.375 12.9375 C-2.88425926 14.38194444 -2.88425926 14.38194444 -6.125 12.4375 C-7.625 9.9375 -7.625 9.9375 -7.625 6.375 C-6.625 2.9375 -6.625 2.9375 -4.875 0.9375 C-2.625 -0.0625 -2.625 -0.0625 0 0 Z " fill="#8F8F8F" transform="translate(636.625,268.0625)"/>
<path d="M0 0 C0.99 0.33 1.98 0.66 3 1 C3.33 3.64 3.66 6.28 4 9 C4.66 9 5.32 9 6 9 C6.33 6.36 6.66 3.72 7 1 C7.99 0.67 8.98 0.34 10 0 C10.08121924 1.60332791 10.13929134 3.20784026 10.1875 4.8125 C10.22230469 5.70582031 10.25710938 6.59914063 10.29296875 7.51953125 C10 10 10 10 8.6484375 11.8359375 C7 13 7 13 4.4375 12.8125 C2 12 2 12 0 10 C-0.1953125 7.6171875 -0.1953125 7.6171875 -0.125 4.875 C-0.10695313 3.96492188 -0.08890625 3.05484375 -0.0703125 2.1171875 C-0.04710937 1.41851562 -0.02390625 0.71984375 0 0 Z " fill="#929292" transform="translate(933,269)"/>
<path d="M0 0 C0 0.99 0 1.98 0 3 C-2.31 2.67 -4.62 2.34 -7 2 C-7.33 3.65 -7.66 5.3 -8 7 C-4.71303767 7.79953138 -3.28976808 8.09658936 0 7 C-0.33 8.32 -0.66 9.64 -1 11 C-6.32110092 12.33027523 -6.32110092 12.33027523 -9.3125 10.875 C-11.44844689 8.50172568 -11.92398434 7.19265766 -12 4 C-10.75 1.25 -10.75 1.25 -9 -1 C-5.23375329 -2.25541557 -3.62811066 -1.37061958 0 0 Z " fill="#7B7B7B" transform="translate(864,270)"/>
<path d="M0 0 C3.5625 0.1875 3.5625 0.1875 5.5625 2.1875 C5.7578125 4.5703125 5.7578125 4.5703125 5.6875 7.3125 C5.66945313 8.22257812 5.65140625 9.13265625 5.6328125 10.0703125 C5.60960937 10.76898438 5.58640625 11.46765625 5.5625 12.1875 C4.9025 12.1875 4.2425 12.1875 3.5625 12.1875 C3.2325 9.5475 2.9025 6.9075 2.5625 4.1875 C1.2425 3.8575 -0.0775 3.5275 -1.4375 3.1875 C-1.4375 6.1575 -1.4375 9.1275 -1.4375 12.1875 C-2.4275 11.8575 -3.4175 11.5275 -4.4375 11.1875 C-4.46438151 9.54175434 -4.48384123 7.89588587 -4.5 6.25 C-4.51160156 5.33347656 -4.52320313 4.41695313 -4.53515625 3.47265625 C-4.37688684 -0.23084786 -3.83485767 0.20917405 0 0 Z " fill="#242424" transform="translate(990.4375,268.8125)"/>
<path d="M0 0 C0.33 0 0.66 0 1 0 C1 2.31 1 4.62 1 7 C2.65 7 4.3 7 6 7 C5.67 8.32 5.34 9.64 5 11 C5.928125 11.433125 5.928125 11.433125 6.875 11.875 C9 13 9 13 11 15 C9.58800422 15.39222105 8.17007236 15.76311059 6.75 16.125 C5.96109375 16.33382812 5.1721875 16.54265625 4.359375 16.7578125 C1.5796929 17.04314411 0.34112451 16.44977894 -2 15 C-2 13 -2 13 0 11 C-0.66 10.34 -1.32 9.68 -2 9 C-1.34 8.67 -0.68 8.34 0 8 C0 5.36 0 2.72 0 0 Z " fill="#3698FF" transform="translate(932,192)"/>
<path d="M0 0 C1.65 0 3.3 0 5 0 C6.43409651 4.30228952 5.78065858 7.60879548 5 12 C3.35 12 1.7 12 0 12 C-0.66 10.68 -1.32 9.36 -2 8 C-1.01 8 -0.02 8 1 8 C1 8.66 1 9.32 1 10 C1.66 10 2.32 10 3 10 C3 9.01 3 8.02 3 7 C1.68 6.34 0.36 5.68 -1 5 C-0.67 3.35 -0.34 1.7 0 0 Z M2 2 C3 4 3 4 3 4 Z " fill="#959595" transform="translate(871,269)"/>
<path d="M0 0 C1.65 0.33 3.3 0.66 5 1 C4.79375 1.61875 4.5875 2.2375 4.375 2.875 C4.25125 3.57625 4.1275 4.2775 4 5 C4.66 5.66 5.32 6.32 6 7 C5.46428571 10.53571429 5.46428571 10.53571429 4 12 C2.33382885 12.04063832 0.66611905 12.042721 -1 12 C-1.33 10.68 -1.66 9.36 -2 8 C-1.01 8 -0.02 8 1 8 C1 8.66 1 9.32 1 10 C1.66 10 2.32 10 3 10 C3 9.01 3 8.02 3 7 C1.68 6.34 0.36 5.68 -1 5 C-0.67 3.35 -0.34 1.7 0 0 Z " fill="#7B7B7B" transform="translate(895,269)"/>
<path d="M0 0 C1.65 0.33 3.3 0.66 5 1 C5.22174933 2.45635371 5.42698698 3.91522956 5.625 5.375 C5.74101563 6.18710937 5.85703125 6.99921875 5.9765625 7.8359375 C5.98429688 8.55007813 5.99203125 9.26421875 6 10 C4 12 4 12 1.375 12.125 C0.59125 12.08375 -0.1925 12.0425 -1 12 C-1.33 10.68 -1.66 9.36 -2 8 C-1.01 8 -0.02 8 1 8 C1 8.66 1 9.32 1 10 C1.66 10 2.32 10 3 10 C3 9.01 3 8.02 3 7 C1.68 6.34 0.36 5.68 -1 5 C-0.67 3.35 -0.34 1.7 0 0 Z M2 2 C3 4 3 4 3 4 Z " fill="#272727" transform="translate(822,269)"/>
<path d="M0 0 C0.99 0.33 1.98 0.66 3 1 C4.1875 4.0625 4.1875 4.0625 5 7 C4.34 7 3.68 7 3 7 C3 9.64 3 12.28 3 15 C2.01 15.33 1.02 15.66 0 16 C0 13.03 0 10.06 0 7 C-0.66 7 -1.32 7 -2 7 C-2 6.01 -2 5.02 -2 4 C-1.34 4 -0.68 4 0 4 C0 2.68 0 1.36 0 0 Z " fill="#212121" transform="translate(729,265)"/>
<path d="M0 0 C0.66 0 1.32 0 2 0 C2 1.32 2 2.64 2 4 C2.66 4 3.32 4 4 4 C4 4.99 4 5.98 4 7 C3.34 7 2.68 7 2 7 C2 9.97 2 12.94 2 16 C1.01 15.67 0.02 15.34 -1 15 C-1 12.36 -1 9.72 -1 7 C-1.66 7 -2.32 7 -3 7 C-1.125 1.125 -1.125 1.125 0 0 Z " fill="#151515" transform="translate(835,265)"/>
<path d="M0 0 C0.99 0.33 1.98 0.66 3 1 C4.1875 4.0625 4.1875 4.0625 5 7 C4.01 7.495 4.01 7.495 3 8 C3 10.31 3 12.62 3 15 C2.01 15.33 1.02 15.66 0 16 C0 13.03 0 10.06 0 7 C-0.66 7 -1.32 7 -2 7 C-2 6.01 -2 5.02 -2 4 C-1.34 4 -0.68 4 0 4 C0 2.68 0 1.36 0 0 Z " fill="#888888" transform="translate(950,265)"/>
<path d="M0 0 C0.99 0 1.98 0 3 0 C3 5.94 3 11.88 3 18 C2.01 18 1.02 18 0 18 C0 12.06 0 6.12 0 0 Z " fill="#212121" transform="translate(767,263)"/>
<path d="M0 0 C0.33 0 0.66 0 1 0 C1.621881 8.23992322 1.621881 8.23992322 -0.6875 11.0625 C-3.43303736 12.17555569 -5.07118358 12.525685 -8 12 C-9.8125 10 -9.8125 10 -11 8 C-8.33333333 8.66666667 -5.66666667 9.33333333 -3 10 C-3 9.34 -3 8.68 -3 8 C-4.32 7.67 -5.64 7.34 -7 7 C-6.21625 6.5875 -5.4325 6.175 -4.625 5.75 C-1.94108344 3.9607223 -1.11901051 2.95011861 0 0 Z " fill="#272727" transform="translate(805,273)"/>
<path d="M0 0 C0.66 0 1.32 0 2 0 C2 5.94 2 11.88 2 18 C1.01 17.67 0.02 17.34 -1 17 C-1.02684679 14.35409986 -1.04676357 11.70846904 -1.0625 9.0625 C-1.07087891 8.30775391 -1.07925781 7.55300781 -1.08789062 6.77539062 C-1.09652441 4.85005687 -1.05224333 2.92464419 -1 1 C-0.67 0.67 -0.34 0.34 0 0 Z " fill="#797979" transform="translate(925,263)"/>
<path d="M0 0 C1.4606285 2.64738916 2 3.89448334 2 7 C5.19902639 7.08886184 7.92677456 6.91058531 11 6 C11 6.99 11 7.98 11 9 C7.75173326 11.16551116 6.76905843 11.55156953 3 11 C0.6875 9.375 0.6875 9.375 -1 7 C-1.3125 3.8125 -1.3125 3.8125 -1 1 C-0.67 0.67 -0.34 0.34 0 0 Z " fill="#272727" transform="translate(739,271)"/>
<path d="M0 0 C1.32 0.33 2.64 0.66 4 1 C3.67 5.62 3.34 10.24 3 15 C2.01 15 1.02 15 0 15 C0 10.05 0 5.1 0 0 Z " fill="#171717" transform="translate(844,266)"/>
<path d="M0 0 C0.99 0 1.98 0 3 0 C3 4.95 3 9.9 3 15 C2.01 15 1.02 15 0 15 C-0.19390729 12.68802845 -0.37996367 10.3753971 -0.5625 8.0625 C-0.71912109 6.13083984 -0.71912109 6.13083984 -0.87890625 4.16015625 C-0.91886719 3.11730469 -0.95882812 2.07445312 -1 1 C-0.67 0.67 -0.34 0.34 0 0 Z " fill="#202020" transform="translate(812,266)"/>
<path d="M0 0 C0.99 0.66 1.98 1.32 3 2 C2.67 2.66 2.34 3.32 2 4 C-0.97 4 -3.94 4 -7 4 C-7.33 4.66 -7.66 5.32 -8 6 C-8.33 5.01 -8.66 4.02 -9 3 C-9.99 2.67 -10.98 2.34 -12 2 C-8.07178453 -0.61881031 -4.56556861 -0.28987737 0 0 Z " fill="#439DFF" transform="translate(901,222)"/>
<path d="M0 0 C0.33 0.99 0.66 1.98 1 3 C-0.66342837 4.66342837 -2.7825709 4.36048097 -5.0625 4.5625 C-5.98160156 4.64628906 -6.90070312 4.73007813 -7.84765625 4.81640625 C-8.91306641 4.90728516 -8.91306641 4.90728516 -10 5 C-10 4.34 -10 3.68 -10 3 C-11.32 2.34 -12.64 1.68 -14 1 C-9.27685687 0.22887459 -4.78478822 -0.09764874 0 0 Z " fill="#3095FF" transform="translate(955,202)"/>
<path d="M0 0 C0.99 0 1.98 0 3 0 C3.33 0.66 3.66 1.32 4 2 C6.64 1.67 9.28 1.34 12 1 C11.375 2.9375 11.375 2.9375 10 5 C7.125 5.9375 7.125 5.9375 4 6 C1.625 4.75 1.625 4.75 0 3 C0 2.01 0 1.02 0 0 Z " fill="#828282" transform="translate(710,276)"/>
<path d="M0 0 C0.66 0 1.32 0 2 0 C2.05395478 1.62463842 2.09277195 3.24978541 2.125 4.875 C2.14820313 5.77992188 2.17140625 6.68484375 2.1953125 7.6171875 C2 10 2 10 0 12 C-2.125 11.625 -2.125 11.625 -4 11 C-3.34 11 -2.68 11 -2 11 C-1.93941406 10.28972656 -1.87882813 9.57945312 -1.81640625 8.84765625 C-1.69072266 7.46900391 -1.69072266 7.46900391 -1.5625 6.0625 C-1.48128906 5.14597656 -1.40007813 4.22945313 -1.31640625 3.28515625 C-1 1 -1 1 0 0 Z " fill="#848484" transform="translate(941,269)"/>
<path d="M0 0 C2.375 0.9375 2.375 0.9375 3.6875 3 C4.0278125 3.9590625 4.0278125 3.9590625 4.375 4.9375 C3.281875 4.751875 2.18875 4.56625 1.0625 4.375 C-2.56124133 3.6796932 -2.56124133 3.6796932 -5.625 4.9375 C-6.35823796 6.95258358 -6.35823796 6.95258358 -6.625 8.9375 C-6.875 6.125 -6.875 6.125 -6.625 2.9375 C-4.42604299 0.41277158 -3.35206126 -0.07981098 0 0 Z " fill="#737373" transform="translate(636.625,268.0625)"/>
<path d="M0 0 C0.66 0 1.32 0 2 0 C2 5.94 2 11.88 2 18 C1.34 18 0.68 18 0 18 C0 12.06 0 6.12 0 0 Z " fill="#5C5C5C" transform="translate(702,263)"/>
<path d="M0 0 C0.99 0 1.98 0 3 0 C2.67 4.95 2.34 9.9 2 15 C1.34 15 0.68 15 0 15 C-0.19390729 12.68802845 -0.37996367 10.3753971 -0.5625 8.0625 C-0.71912109 6.13083984 -0.71912109 6.13083984 -0.87890625 4.16015625 C-0.91886719 3.11730469 -0.95882812 2.07445312 -1 1 C-0.67 0.67 -0.34 0.34 0 0 Z " fill="#757575" transform="translate(960,266)"/>
<path d="M0 0 C2 2 2 2 2.125 5.125 C2.08375 6.07375 2.0425 7.0225 2 8 C1.67 6.68 1.34 5.36 1 4 C-1.97 3.67 -4.94 3.34 -8 3 C-7.67 2.01 -7.34 1.02 -7 0 C-4.29393021 -1.35303489 -2.8671629 -0.7884698 0 0 Z " fill="#6A6A6A" transform="translate(916,269)"/>
<path d="M0 0 C2 2 2 2 2.1953125 4.1640625 C2.17210937 4.97617187 2.14890625 5.78828125 2.125 6.625 C2.10695313 7.44226563 2.08890625 8.25953125 2.0703125 9.1015625 C2.03550781 10.04128906 2.03550781 10.04128906 2 11 C1.01 11 0.02 11 -1 11 C-1.33 7.7 -1.66 4.4 -2 1 C-1.34 0.67 -0.68 0.34 0 0 Z " fill="#8B8B8B" transform="translate(676,270)"/>
<path d="M0 0 C0.99 0.33 1.98 0.66 3 1 C2.21654285 2.17219543 1.42297164 3.33763668 0.625 4.5 C0.18414063 5.1496875 -0.25671875 5.799375 -0.7109375 6.46875 C-1.13632812 6.9740625 -1.56171875 7.479375 -2 8 C-2.66 8 -3.32 8 -4 8 C-4.33 6.35 -4.66 4.7 -5 3 C-2.6875 1.4375 -2.6875 1.4375 0 0 Z " fill="#2E93FF" transform="translate(908,187)"/>
<path d="M0 0 C0.66 0 1.32 0 2 0 C2.25 5.625 2.25 5.625 0 9 C-3.125 9.1875 -3.125 9.1875 -6 9 C-5.195625 8.443125 -4.39125 7.88625 -3.5625 7.3125 C-0.75771784 4.78135513 -0.30618405 3.67420866 0 0 Z " fill="#2D2D2D" transform="translate(979,272)"/>
<path d="M0 0 C0.33 0 0.66 0 1 0 C1 2.97 1 5.94 1 9 C-1.66666667 8.33333333 -4.33333333 7.66666667 -7 7 C-6.21625 6.5875 -5.4325 6.175 -4.625 5.75 C-1.94108344 3.9607223 -1.11901051 2.95011861 0 0 Z " fill="#313131" transform="translate(805,273)"/>
<path d="M0 0 C1.32 0 2.64 0 4 0 C4 0.66 4 1.32 4 2 C3.34 2 2.68 2 2 2 C2 4.97 2 7.94 2 11 C1.34 11 0.68 11 0 11 C0 7.37 0 3.74 0 0 Z " fill="#303030" transform="translate(835,270)"/>
<path d="M0 0 C-0.33 1.32 -0.66 2.64 -1 4 C-2.98 4.33 -4.96 4.66 -7 5 C-7.33 4.01 -7.66 3.02 -8 2 C-2.25 0 -2.25 0 0 0 Z " fill="#7F7F7F" transform="translate(864,277)"/>
<path d="M0 0 C0.66 0.33 1.32 0.66 2 1 C2 4.3 2 7.6 2 11 C1.34 11 0.68 11 0 11 C-0.22786458 8.98177083 -0.45572917 6.96354167 -0.68359375 4.9453125 C-0.91292961 2.92595684 -0.91292961 2.92595684 -2 1 C-1.34 0.67 -0.68 0.34 0 0 Z " fill="#3A3A3A" transform="translate(994,270)"/>
<path d="M0 0 C2.375 0.3125 2.375 0.3125 5 1 C7 4 7 4 6.625 6.6875 C6.41875 7.450625 6.2125 8.21375 6 9 C5.67 9 5.34 9 5 9 C5 7.35 5 5.7 5 4 C3.35 3.67 1.7 3.34 0 3 C0 2.01 0 1.02 0 0 Z " fill="#878787" transform="translate(651,268)"/>
<path d="M0 0 C1.98 0.66 3.96 1.32 6 2 C6 2.99 6 3.98 6 5 C3.36 4.67 0.72 4.34 -2 4 C-1.34 2.68 -0.68 1.36 0 0 Z " fill="#747474" transform="translate(858,268)"/>
<path d="M0 0 C0.99 0 1.98 0 3 0 C3 0.99 3 1.98 3 3 C-0.22791555 5.1519437 -1.28400809 5.20086443 -5 5 C-4.67 4.34 -4.34 3.68 -4 3 C-3.01 3 -2.02 3 -1 3 C-0.67 2.01 -0.34 1.02 0 0 Z " fill="#1F1F1F" transform="translate(747,277)"/>
<path d="M0 0 C3.875 0.875 3.875 0.875 5 2 C5.04080783 3.99958364 5.04254356 6.00045254 5 8 C4.34 8 3.68 8 3 8 C2.67 6.02 2.34 4.04 2 2 C1.34 2 0.68 2 0 2 C0 1.34 0 0.68 0 0 Z " fill="#636363" transform="translate(691,270)"/>
<path d="M0 0 C0.33 0 0.66 0 1 0 C1 1.65 1 3.3 1 5 C-0.65 5 -2.3 5 -4 5 C-4.66 3.68 -5.32 2.36 -6 1 C-5.01 1 -4.02 1 -3 1 C-3 1.66 -3 2.32 -3 3 C-2.01 3 -1.02 3 0 3 C0 2.01 0 1.02 0 0 Z " fill="#646464" transform="translate(875,276)"/>
<path d="M0 0 C0.66 1.32 1.32 2.64 2 4 C-1 6 -1 6 -5 6 C-5 5.34 -5 4.68 -5 4 C-4.360625 3.71125 -3.72125 3.4225 -3.0625 3.125 C-0.84793921 2.17176549 -0.84793921 2.17176549 0 0 Z " fill="#7E7E7E" transform="translate(693,276)"/>
<path d="M0 0 C2.4375 0.75 2.4375 0.75 5 2 C5.8125 4.125 5.8125 4.125 6 6 C3.625 5.6875 3.625 5.6875 1 5 C0.34 4.01 -0.32 3.02 -1 2 C-0.67 1.34 -0.34 0.68 0 0 Z " fill="#1D1D1D" transform="translate(796,277)"/>
<path d="M0 0 C0.86625 0.556875 0.86625 0.556875 1.75 1.125 C-1.715 2.61 -1.715 2.61 -5.25 4.125 C-5.58 3.135 -5.91 2.145 -6.25 1.125 C-2.80384615 -1.09038462 -2.80384615 -1.09038462 0 0 Z " fill="#7B7B7B" transform="translate(691.25,268.875)"/>
<path d="M0 0 C0.1875 2.875 0.1875 2.875 0 6 C-0.99 6.66 -1.98 7.32 -3 8 C-3.66 7.34 -4.32 6.68 -5 6 C-4.34 6 -3.68 6 -3 6 C-3 4.35 -3 2.7 -3 1 C-1 0 -1 0 0 0 Z " fill="#979797" transform="translate(919,272)"/>
<path d="M0 0 C0.66 0.66 1.32 1.32 2 2 C1.9765625 5.0390625 1.9765625 5.0390625 1.625 8.625 C1.51414062 9.81351562 1.40328125 11.00203125 1.2890625 12.2265625 C1.19367187 13.14179688 1.09828125 14.05703125 1 15 C0.67 15 0.34 15 0 15 C-0.19390729 12.68802845 -0.37996367 10.3753971 -0.5625 8.0625 C-0.71912109 6.13083984 -0.71912109 6.13083984 -0.87890625 4.16015625 C-0.91886719 3.11730469 -0.95882812 2.07445312 -1 1 C-0.67 0.67 -0.34 0.34 0 0 Z " fill="#797979" transform="translate(846,266)"/>
<path d="M0 0 C1.65 0 3.3 0 5 0 C5.33 0.99 5.66 1.98 6 3 C5.01 3.33 4.02 3.66 3 4 C3 3.34 3 2.68 3 2 C2.34 2 1.68 2 1 2 C0.67 2.66 0.34 3.32 0 4 C0 2.68 0 1.36 0 0 Z " fill="#717171" transform="translate(871,269)"/>
<path d="M0 0 C0.763125 0.20625 1.52625 0.4125 2.3125 0.625 C0.17687246 2.76062754 -0.75296739 3.25818342 -3.6875 3.625 C-4.3475 2.965 -5.0075 2.305 -5.6875 1.625 C-2.6875 -0.375 -2.6875 -0.375 0 0 Z " fill="#232323" transform="translate(745.6875,268.375)"/>
</svg>
